<?xml version="1.0" standalone="no"?>
<!DOCTYPE svg PUBLIC "-//W3C//DTD SVG 20010904//EN"
 "http://www.w3.org/TR/2001/REC-SVG-20010904/DTD/svg10.dtd">
<svg version="1.0" xmlns="http://www.w3.org/2000/svg"
 width="100.000000pt" height="100.000000pt" viewBox="0 0 100.000000 100.000000"
 preserveAspectRatio="xMidYMid meet">

<g transform="translate(0.000000,100.000000) scale(0.100000,-0.100000)"
fill="#000000" stroke="none">
<path d="M285 989 c-162 -27 -247 -113 -274 -280 -14 -83 -14 -335 0 -419 27
-168 111 -252 280 -279 83 -14 335 -14 418 0 169 27 253 111 280 279 14 84 14
336 0 420 -27 168 -111 252 -280 279 -74 13 -351 12 -424 0z m387 -157 c43
-21 83 -51 112 -83 60 -67 59 -81 -1 -21 -75 75 -130 97 -238 97 -78 0 -97 -4
-147 -28 -68 -33 -121 -90 -156 -166 -21 -44 -26 -72 -27 -131 0 -66 5 -85 33
-142 102 -208 367 -254 529 -92 67 66 69 54 4 -18 -29 -31 -74 -66 -108 -83
-53 -28 -67 -30 -163 -30 -96 0 -110 3 -161 29 -71 35 -139 104 -176 176 -25
50 -28 65 -28 160 0 95 3 110 28 160 71 139 193 211 347 207 74 -2 95 -7 152
-35z m29 -227 c48 -55 85 -102 84 -103 -2 -2 -63 39 -136 91 l-133 95 -54 -24
c-30 -13 -57 -24 -60 -24 -4 0 27 34 68 75 l74 74 35 -42 c20 -23 75 -86 122
-142z m-378 62 c-14 -43 -14 -49 1 -72 21 -33 48 -31 116 5 60 33 96 37 125
16 18 -13 17 -14 -13 -21 -29 -6 -72 -49 -60 -60 2 -3 28 5 56 17 45 19 55 20
79 8 l28 -13 -28 -9 c-32 -11 -45 -49 -27 -83 33 -62 160 -60 233 3 24 21 27
14 11 -39 -30 -102 -121 -194 -217 -220 -46 -12 -157 -6 -185 10 -12 8 6 11
68 12 l85 2 -76 6 c-112 9 -168 51 -169 127 0 55 30 94 73 94 31 1 31 1 12 16
-20 15 -44 15 -133 -2 -61 -12 -76 26 -47 123 13 45 71 140 80 131 2 -2 -3
-25 -12 -51z m433 -22 c37 -42 65 -77 63 -79 -4 -4 -141 93 -163 114 -9 9 9
40 24 40 5 0 39 -34 76 -75z"/>
</g>
</svg>
