<svg id="Layer_1" data-name="Layer 1" xmlns="http://www.w3.org/2000/svg" xmlns:xlink="http://www.w3.org/1999/xlink" viewBox="0 0 1441.02 889.14"><defs><style>.cls-1{fill:#fff;}.cls-2{fill:#dadae0;}.cls-3{fill:#b6b6c2;}.cls-14,.cls-4{fill:none;}.cls-4{stroke:#cfcdc0;}.cls-5{opacity:0.56;}.cls-6{fill:#1c3087;}.cls-7{fill:#18286c;}.cls-8{fill:#9191a3;}.cls-9{mask:url(#mask);}.cls-10{fill:#0c4180;}.cls-11{fill:#6d6c84;}.cls-12{fill:#36364c;}.cls-13{fill:#2163af;}.cls-15{fill:#242433;}.cls-16{fill:#121219;}</style><mask id="mask" x="999.18" y="674.73" width="178" height="84" maskUnits="userSpaceOnUse"><g transform="translate(0 5)"><g id="mask-4"><ellipse id="path-3" class="cls-1" cx="1085.68" cy="711.73" rx="86.5" ry="42"/></g></g></mask></defs><path id="Path-62" class="cls-2" d="M1092,326q-50.43-33.64-56.39-22.95c-6,10.68-3.82,7.62-23.41,0s-64.71-30-70.24-15-.15,29.6-26,26.19Q890,310.83,870,326Z" transform="translate(0 5)"/><g id="planet-2"><ellipse id="Oval-3-Copy-9" class="cls-3" cx="1086.81" cy="220.45" rx="14.1" ry="12.8"/><ellipse id="Oval-3-Copy-9-2" data-name="Oval-3-Copy-9" class="cls-3" cx="1084.38" cy="222.65" rx="1.94" ry="1.77"/><ellipse id="Oval-3-Copy-9-3" data-name="Oval-3-Copy-9" class="cls-3" cx="1096.53" cy="220.45" rx="0.97" ry="0.88"/><g id="Group-23"><ellipse id="Oval-3-Copy-9-4" data-name="Oval-3-Copy-9" class="cls-4" cx="1087.03" cy="215.32" rx="22.64" ry="5.43" transform="translate(275.39 974.8) rotate(-54.11)"/></g></g><g id="Group-40-Copy" class="cls-5"><path id="Rectangle-Copy-2" class="cls-6" d="M1153.3,666.16q-9.39-9.58-12.24,11.57t0,79.59h12.24Z" transform="translate(0 5)"/><path id="Rectangle-Copy-2-2" data-name="Rectangle-Copy-2" class="cls-7" d="M1153.24,666.16q9.4-9.58,12.25,11.57t0,79.59h-12.25Z" transform="translate(0 5)"/><g id="Group-56"><g id="Mask-2" data-name="Mask"><ellipse id="path-3-2" data-name="path-3" class="cls-8" cx="1085.68" cy="716.73" rx="86.5" ry="42"/></g><g class="cls-9"><ellipse id="Oval" class="cls-10" cx="1074.18" cy="681.73" rx="12" ry="2"/><ellipse id="Oval-2" data-name="Oval" class="cls-10" cx="1104.18" cy="681.73" rx="12" ry="2"/><ellipse id="Oval-3" data-name="Oval" class="cls-10" cx="1135.18" cy="681.73" rx="12" ry="2"/><ellipse id="Oval-4" data-name="Oval" class="cls-10" cx="1044.18" cy="681.73" rx="12" ry="2"/><g id="Group-55"><ellipse id="Oval-5" data-name="Oval" class="cls-10" cx="1074.18" cy="699.73" rx="12" ry="2"/><ellipse id="Oval-6" data-name="Oval" class="cls-10" cx="1105.18" cy="699.73" rx="12" ry="2"/><ellipse id="Oval-7" data-name="Oval" class="cls-10" cx="1134.18" cy="699.73" rx="12" ry="2"/><ellipse id="Oval-8" data-name="Oval" class="cls-10" cx="1165.18" cy="699.73" rx="12" ry="2"/><ellipse id="Oval-9" data-name="Oval" class="cls-10" cx="1014.18" cy="699.73" rx="12" ry="2"/><ellipse id="Oval-10" data-name="Oval" class="cls-10" cx="1045.18" cy="699.73" rx="12" ry="2"/></g><ellipse id="Oval-11" data-name="Oval" class="cls-10" cx="1119.18" cy="690.73" rx="7" ry="2"/><ellipse id="Oval-12" data-name="Oval" class="cls-10" cx="1146.18" cy="690.73" rx="7" ry="2"/><ellipse id="Oval-13" data-name="Oval" class="cls-10" cx="1066.18" cy="690.73" rx="7" ry="2"/><ellipse id="Oval-14" data-name="Oval" class="cls-10" cx="1093.18" cy="690.73" rx="7" ry="2"/><ellipse id="Oval-15" data-name="Oval" class="cls-10" cx="1016.18" cy="690.73" rx="7" ry="2"/><ellipse id="Oval-16" data-name="Oval" class="cls-10" cx="1043.18" cy="690.73" rx="7" ry="2"/></g></g><path id="Oval-17" data-name="Oval" class="cls-3" d="M1177.11,667.14c0-5-10.5-9.14-23.47-9.14s-23.46,4.09-23.46,9.14S1177.11,672.19,1177.11,667.14Z" transform="translate(0 5)"/></g><g id="Group-40"><path id="Rectangle-Copy-2-3" data-name="Rectangle-Copy-2" class="cls-11" d="M41,492.94q-12.39-12.63-16.13,15.23t0,104.83H41Z" transform="translate(0 5)"/><path id="Rectangle-Copy-2-4" data-name="Rectangle-Copy-2" class="cls-11" d="M40,492.94q12.39-12.63,16.13,15.23t0,104.83H40Z" transform="translate(0 5)"/><path id="Oval-18" data-name="Oval" class="cls-11" d="M72,494c0-6.64-13.88-12-31-12s-31,5.38-31,12S72,500.66,72,494Z" transform="translate(0 5)"/></g><path id="Path-62-Copy-3" class="cls-12" d="M678,826.72q25.21-57.09,28.2-39c3,18.13,1.9,13,11.7,0s32.35-50.88,35.12-25.44.08,50.23,13,44.45q12.94-5.79,23,20H678Z" transform="translate(0 5)"/><path id="Path-2" class="cls-13" d="M0,0" transform="translate(0 5)"/><path id="Path-21" class="cls-13" d="M0,0" transform="translate(0 5)"/><path class="cls-14" d="M114.6,599.9C174.73,585.83,179.84,633,219.33,641s63.38-8,99.13,0S423,760.18,591.41,789.4C629.12,795.94,669,799,709.2,799.68c145.2-41.09,214.55-107.3,254.65-113.19,50.8-7.47,84.73,7.46,140.84,0s63.37-51.72,148.8-38.53c56.39,8.71,118.64.17,186.51-16.51V-5H0V588.18C41.34,602,79.58,608.1,114.6,599.9Z" transform="translate(0 5)"/><path class="cls-12" d="M1253.49,648c-85.43-13.19-92.69,31.06-148.8,38.53s-90-7.47-140.84,0c-39.63,47.37-109.17,96.72-254.65,113.19,16.94.31,34.94,30.85,51.82,30.42,11,30.65,33.81-13,49.64-20.63C832,799.22,876.92,793.65,894,785c16.32-8.26,51.74-20.79,64-27.68A146.46,146.46,0,0,1,1009.18,740c25.5-3.75,19.05-5.71,41-3.83,9.78.83,25.47,1.69,36.85,0,13.94-2.08,27.77-5.13,43.15-7.17,22.1-2.94,14.92-5,29.9-8,12.12-2.39,9.54-45.19,25.82-49,5.68-1.33,25.94-13.13,32.65-17.4,10.59-6.73,68.85,1.34,83.84,4.2,17.53,3.34,43.7,2.18,62.18,0,19.68-2.33,32.28-7,53-13.19q11.09-3.29,22.38-6.49v-7.64C1372.13,648.13,1309.88,656.66,1253.49,648Z" transform="translate(0 5)"/><path class="cls-15" d="M1365.59,689.41c-18.48,2.18-44.64,3.34-62.18,0-15-2.86-73.25-10.93-83.83-4.2-6.72,4.27-27,16.07-32.66,17.41-16.28,3.83-15.53,2-27.65,4.42-15,2.94-22.67,18-44.77,20.89-15.38,2.05-31.48-2.07-45.42,0-11.39,1.7-34.45,5.7-44.23,4.86-21.95-1.87-28.89-12.56-54.39-8.81-12.74,1.87-21.64,21.16-41.78,32.47-12.26,6.89-33.48,3.3-49.8,11.56-17.08,8.65-46.93,31.21-68.22,41.46A490,490,0,0,1,761,830.1c121.83-3.05,238.15-22.74,293.25-25a36.76,36.76,0,0,1,9.51,1.06c80.09-9.44,186.13-41.1,209.5-46.25,26.38-5.83,83.4,5.82,128,0a381.18,381.18,0,0,0,39.75-7.78V669.73q-11.28,3.22-22.37,6.49C1397.87,682.36,1385.27,687.08,1365.59,689.41Z" transform="translate(0 5)"/><path class="cls-15" d="M114.6,632.94c60.13-14.07,69.94,37.19,106.12,37.19s42,12.37,65.18,11.44c8.22-.33,22.43-13.52,31.78-11.44,13,2.9,22.91,25.29,48,46.67,27.79,23.73,49.51,52.78,103,75.39,30.46,12.88,86.44,17.22,125.29,24C628,822.07,685,836,720,836.39c38.25.48,64.14-17.31,109-13.09,88.69,8.35,157.74-23.4,204.28-25.28,9.23-.37,19.13-1.22,29.46-2.44a36.71,36.71,0,0,0-9.51-1.05c-55.1,2.22-171.42,21.91-293.26,25-16.87.42-33.85.53-50.79.22C669,819,629.12,816,591.41,809.43,423,780.22,317.75,650,282,642s-23.18,27-62.67,19S177.13,584,117,598c-35,8.19-75.66,24-117,10.18V646c22,10.87,43.2,4.69,64,6.34C80.41,653.64,99.39,636.5,114.6,632.94Z" transform="translate(0 5)"/><path class="cls-16" d="M1272.26,749.33c-23.37,5.16-129.41,36.82-209.5,46.25-10.33,1.22-20.23,2.07-29.46,2.44C986.76,799.9,917.71,831.65,829,823.3c-44.88-4.23-70.77,13.57-109,13.09-35-.44-92-14.32-126.11-20.24-38.85-6.74-94.83-11.08-125.29-24-53.45-22.61-75.17-51.66-103-75.39-25.05-21.38-34.92-43.77-48-46.67-9.35-2.08-23.56,11.11-31.78,11.44-23.21.93-29-11.44-65.18-11.44s-46-51.26-106.12-37.19c-15.21,3.56-34.19,20.7-50.61,19.4-19.08-1.51-38.47-8.46-58.55-18A3.8,3.8,0,0,0,0,637.77V880.34a3.8,3.8,0,0,0,3.8,3.8H1436.2a3.8,3.8,0,0,0,3.8-3.8v-134a3.8,3.8,0,0,0-4.66-3.7c-11.95,2.81-24,5.22-35.09,6.66C1355.66,755.15,1298.64,743.51,1272.26,749.33Z" transform="translate(0 5)"/><path class="cls-1" d="M1440,801.57a5.77,5.77,0,0,0-6.89-5.66C1246.23,832.76,995.56,855.3,720,855.3S193.77,832.76,6.89,795.91A5.77,5.77,0,0,0,0,801.57v57.07a5.77,5.77,0,0,0,5.77,5.77H1434.23a5.77,5.77,0,0,0,5.77-5.77Z" transform="translate(0 5)"/><path class="cls-11" d="M489,528" transform="translate(0 5)"/><path class="cls-2" d="M161.85,350.61c.76,6.15,2.54,20.49-5.41,31.65-10.29,14.45-30.56,14.72-52,15s-44.16.59-56-15c-7.67-10.08-7.52-22.46-7.41-31.65.09-8.39.28-24.48,11.41-37.35,15-17.39,39.23-16.33,47-16,6.42.28,31.77,2.28,49,23A60.68,60.68,0,0,1,161.85,350.61Z" transform="translate(0 5)"/></svg>